<?xml version="1.0" standalone="no"?><!DOCTYPE svg PUBLIC "-//W3C//DTD SVG 1.1//EN" "http://www.w3.org/Graphics/SVG/1.1/DTD/svg11.dtd"><svg class="icon" width="200px" height="200.00px" viewBox="0 0 1024 1024" version="1.1" xmlns="http://www.w3.org/2000/svg"><path d="M771.968 601.408c-19.072-56.96-77.76-77.696-91.072-78.976-13.376-1.28-25.472-8.512-16.64-23.68 8.96-15.04 25.216-59.008-6.208-89.984-31.36-31.04-100.16-19.264-148.8 0.768-48.512 20.032-45.888 6.08-44.416-7.68 1.6-14.464 27.84-95.424-52.288-105.216-104.896-12.8-239.488 116.096-286.976 190.4-71.872 112.192-60.544 188.032-60.544 188.032h0.512c8.576 104.768 164.032 188.16 354.56 188.16 163.776 0 301.696-61.76 342.528-145.664 0 0 0.064-0.384 0.448-1.024 4.288-8.96 7.488-18.176 9.472-27.712 5.76-22.528 10.112-55.232-0.64-87.424z m-375.488 216.064c-135.616 0-245.632-72.32-245.632-161.472 0-89.088 109.888-161.408 245.632-161.408 135.616 0 245.632 72.32 245.632 161.408 0 89.28-110.08 161.472-245.632 161.472z" fill="#E71F19" /><path d="M730.432 459.648a19.84 19.84 0 0 0 26.048-10.496c5.12-12.032 7.68-24.768 7.68-38.016a97.92 97.92 0 0 0-98.112-97.408c-13.248 0-26.048 2.56-38.144 7.68a19.84 19.84 0 1 0 15.552 36.48 58.112 58.112 0 0 1 80.96 53.248c0 7.808-1.472 15.36-4.608 22.528a19.648 19.648 0 0 0 10.624 25.984z" fill="#F5AA15" /><path d="M664.96 192.128c-22.4 0-44.416 3.2-65.664 9.408a29.76 29.76 0 0 0-20.16 36.928 30.08 30.08 0 0 0 37.12 20.032c15.808-4.608 32.192-6.912 48.64-6.912 93.952 0 170.432 75.84 170.432 169.088 0 16.704-2.56 33.28-7.232 49.152a29.632 29.632 0 0 0 28.672 38.272c12.8 0 24.704-8.32 28.672-21.12a228.48 228.48 0 0 0 9.856-66.304c-0.064-126.08-103.36-228.48-230.4-228.48z" fill="#F5AA15" /><path d="M373.76 553.536c-72.32 0-130.944 50.88-130.944 113.728 0 62.912 58.624 113.792 130.944 113.792s131.008-50.88 131.008-113.792c0-62.848-58.624-113.728-131.008-113.728z m-42.752 187.648a45.76 45.76 0 0 1-45.952-45.568c0-25.088 20.608-45.504 45.952-45.504 25.28 0 45.888 20.416 45.888 45.504a45.76 45.76 0 0 1-45.888 45.568z m85.76-82.048c-5.44 9.536-16.576 13.44-24.64 8.768-8.128-4.544-10.112-16.064-4.608-25.6 5.44-9.6 16.576-13.504 24.704-8.832 8.064 4.736 10.048 16.256 4.608 25.6z" fill="#040000" /></svg>