<?xml version="1.0" standalone="no"?><!DOCTYPE svg PUBLIC "-//W3C//DTD SVG 1.1//EN" "http://www.w3.org/Graphics/SVG/1.1/DTD/svg11.dtd"><svg class="icon" width="200px" height="195.23px" viewBox="0 0 1049 1024" version="1.1" xmlns="http://www.w3.org/2000/svg"><path d="M818.031162 472.474153c-37.03043-7.163009-19.0324-27.074623-19.032399-27.074623s36.228794-59.760701-7.13715-103.126644c-53.787217-53.787217-184.47981 6.826839-184.47981 6.826839-49.908331 15.541403-36.668401-7.033713-29.608829-45.434683 0-45.227809-15.515543-121.771156-148.45789-76.543347-132.813051 45.460542-246.852294 204.675876-246.852295 204.675876-79.284426 105.867724-68.811435 187.634637-68.811434 187.634637 19.834036 180.549206 211.683729 230.121367 360.891537 241.88732 157.017298 12.283138 368.907902-54.149246 433.142252-190.608449 64.234349-136.717796-52.520114-190.789464-89.653982-198.236926zM486.153691 810.402687c-155.827773 7.292305-281.813985-70.854315-281.813985-174.860173 0-104.135155 125.986212-187.660496 281.813985-194.823506 155.982929-7.188868 282.201874 57.07134 282.201874 160.973762 0 103.979999-126.218945 201.598626-282.201874 208.709917z" fill="#E52122" /><path d="M486.153691 810.402687c-155.827773 7.292305-281.813985-70.854315-281.813985-174.860173 0-104.135155 125.986212-187.660496 281.813985-194.823506 155.982929-7.188868 282.201874 57.07134 282.201874 160.973762 0 103.979999-126.218945 201.598626-282.201874 208.709917z" fill="#FFFFFF" /><path d="M455.070886 509.27185c-156.758706 18.36006-141.863784 161.568524-141.863785 161.568525s1.629132 50.115205 45.279527 73.802267c91.72272 49.675598 186.134801 19.601303 233.870957-42.021263s19.70474-211.554433-137.286699-193.349529z m-39.538777 206.098134c-29.272658 3.439279-52.856284-13.446804-52.856284-37.935503 0-24.359403 20.971843-49.908331 50.218642-52.959722 33.617011-3.206546 55.493927 16.162024 55.493927 40.624865 0.025859 24.411121-23.712922 46.934519-52.856285 50.27036z m92.42092-78.689664c-9.929948 7.395742-22.109649 6.335514-27.359075-2.534205-5.482159-8.688704-3.439279-22.575116 6.619966-29.867421 11.610798-8.611127 23.687063-6.12864 28.910629 2.534205 5.249425 8.869719 1.499836 22.187227-8.17152 29.867421z" fill="#040000" /><path d="M1044.894265 390.215915c0.724059-2.896235 1.215384-5.895906 1.241243-9.024875 2.094598-13.860552 3.41342-27.927978 3.41342-41.995404 0-154.689967-125.831056-280.572742-280.546882-280.572741a38.788858 38.788858 0 1 0 0 77.577716c111.918786 0 202.969166 91.05038 202.969165 202.995025 0 12.464153-1.137807 24.980025-3.38756 37.133867l0.465466 0.077578c-0.155155 1.473977-0.439607 2.896235-0.439607 4.42193a38.788858 38.788858 0 0 0 38.788859 38.788858c18.075608 0 33.125685-12.412435 37.418318-29.143362h0.051719l0.025859-0.258592z" fill="#F49D25" /><path d="M923.459279 353.780247c0.465466-4.835678 0.930933-9.619637 0.930933-14.558752a155.569181 155.569181 0 0 0-155.388166-155.388166 32.324049 32.324049 0 0 0 0 64.648097 90.843506 90.843506 0 0 1 90.01601 102.402586l0.749918 0.103437c-0.155155 1.292962-0.749918 2.430768-0.749918 3.775449 0 17.842875 14.481174 32.324049 32.324049 32.324049 16.343039 0 29.272658-12.334857 31.470693-28.057275l0.33617 0.051719c0.103437-0.801636 0.051718-1.654991 0.155156-2.482487 0.025859-0.620622 0.387889-1.189525 0.387888-1.836006-0.025859-0.387889-0.232733-0.67234-0.232733-0.982651z" fill="#F49D25" /></svg>